<?xml version="1.0" encoding="utf-8"?>
<!-- Generator: Adobe Illustrator 12.0.1, SVG Export Plug-In . SVG Version: 6.00 Build 51448)  -->
<!DOCTYPE svg PUBLIC "-//W3C//DTD SVG 1.1//EN" "http://www.w3.org/Graphics/SVG/1.1/DTD/svg11.dtd" [	
<!ENTITY ns_svg "http://www.w3.org/2000/svg">
<!ENTITY ns_xlink "http://www.w3.org/1999/xlink">]>
<svg version="1.1" 
	xmlns="&ns_svg;" 
	xmlns:xlink="&ns_xlink;" width="196.281" height="196.23" viewBox="0 0 196.281 196.23" overflow="visible" enable-background="new 0 0 543.281 196.23" xml:space="preserve">
	<g id="Layer_6"></g>
	<g id="Layer_2">
		<path display="none" opacity="0.61" fill="#DE923A" d="M536.093,118.816c-17.196,51.267-59.783,83.217-95.122,71.367		c-35.338-11.853-50.048-63.028-32.853-114.288c17.195-51.269,59.782-83.217,95.118-71.362		C538.579,16.382,553.287,67.556,536.093,118.816z"/>
		<path fill="#FFFFFF" d="M161.34,109.049c-16.054,47.862-55.868,77.672-88.928,66.585S25.565,116.751,41.617,68.897		C57.671,21.033,97.485-8.775,130.542,2.316C163.605,13.4,177.392,61.194,161.34,109.049z"/>
		<path fill="#0A90CB" d="M157.985,107.256c-15.051,44.873-52.326,72.838-83.257,62.466C43.797,159.349,30.923,114.556,45.973,69.69		C61.024,24.816,98.298-3.148,129.227,7.229C160.161,17.599,173.034,62.391,157.985,107.256z"/>
		<path fill="#FFFFFF" d="M180.458,94.522l-48-11.5c-2.02-0.532-5.155,0.337-6.955,1.197l10.151-37.832		c0.936-3.473,0.061-7.84-1.75-10.831c-1.811-2.991-7.549-10.722-9.737-13.622s-3.939-3.61-6.528-3.738l-36.7-2.094		c-4.949-0.335-10.023,3.617-11.332,8.826L59.458,65.647L27.873,58.02c-3.792-1.016-7.688,1.436-8.702,5.473L8.962,104.105		c-1.016,4.038,1.007,8.071,4.622,9.792l142.5,76.584c4.75,2.5,9.169,1.462,10.667-4.501l19.305-77.485		C187.554,102.535,185.318,95.803,180.458,94.522z"/>
		<g>
			<path d="M103.521,133.708c-1.006,4.003-4.428,6.12-7.644,4.728l-32.025-13.862c-3.216-1.393-5.109-5.359-4.229-8.861l8.855-35.227			c0.88-3.501,4.303-5.621,7.646-4.732l33.288,8.838c3.342,0.888,5.236,4.853,4.229,8.854L103.521,133.708z"/>
			<g>
				<path d="M163.445,159.116c-1.16,4.615-5.048,7.144-8.683,5.648l-35.622-16.062c-3.635-1.495-5.744-6.04-4.71-10.156				l10.566-42.111c1.034-4.113,4.922-6.645,8.685-5.653l37.468,9.87c3.762,0.99,5.873,5.535,4.713,10.149L163.445,159.116z"/>
				<path d="M50.911,111.844c-0.853,3.394-3.563,5.166-6.052,3.96L19.9,104.265c-2.49-1.208-3.918-4.532-3.19-7.427l7.481-29.591				c0.728-2.894,3.438-4.67,6.054-3.967l26.056,7.002c2.616,0.702,4.045,4.024,3.192,7.418L50.911,111.844z"/>
				<path d="M108.224,68.855c-0.968,3.849-4.276,6.375-7.39,5.639L69.829,67.17c-3.113-0.736-4.955-4.045-4.113-7.393L74.181,26.1				c0.842-3.348,4.151-5.875,7.391-5.644l32.269,2.3c3.24,0.23,5.082,3.538,4.116,7.386L108.224,68.855z"/>
			</g>
		</g>
		<line display="none" fill="#0092D2" x1="0" y1="108.564" x2="194.333" y2="196.23"/>
		<line display="none" fill="none" x1="214" y1="119.23" x2="21.667" y2="68.563"/>
	</g>
	<g id="Layer_3">
	
		<g display="none">
			<path display="inline" d="M261.5,171.218l11.574-34.969h14.483c2.508,0,4.354,0.29,5.537,0.871			c1.183,0.581,2.099,1.575,2.746,2.982s0.863,2.986,0.648,4.735c-0.178,1.447-0.65,2.92-1.418,4.414			c-0.768,1.496-1.656,2.729-2.667,3.699c-1.011,0.97-2.004,1.701-2.979,2.194s-2,0.859-3.069,1.098			c-2.29,0.524-4.57,0.787-6.843,0.787h-8.687l-4.696,14.188H261.5z M272.139,153.062h7.648c2.968,0,5.186-0.321,6.653-0.966			c1.468-0.644,2.702-1.626,3.701-2.947c0.999-1.32,1.59-2.721,1.771-4.201c0.141-1.145,0.035-2.08-0.317-2.805			c-0.354-0.724-0.911-1.257-1.673-1.6c-0.763-0.342-2.287-0.513-4.574-0.513h-8.896L272.139,153.062z"/>
			<path display="inline" d="M295.298,161.598c0.607-4.943,2.554-9.037,5.84-12.28c2.711-2.671,5.999-4.006,9.865-4.006			c3.03,0,5.354,0.954,6.975,2.862c1.62,1.907,2.23,4.482,1.833,7.725c-0.357,2.91-1.273,5.616-2.749,8.12s-3.372,4.424-5.689,5.759			c-2.318,1.336-4.669,2.003-7.052,2.003c-1.957,0-3.685-0.421-5.183-1.264s-2.575-2.035-3.229-3.577			C295.253,165.398,295.05,163.618,295.298,161.598z M299.632,161.168c-0.293,2.383,0.053,4.19,1.037,5.422s2.352,1.847,4.103,1.847			c0.915,0,1.845-0.187,2.789-0.56s1.85-0.941,2.717-1.705c0.866-0.762,1.632-1.632,2.295-2.609			c0.664-0.977,1.231-2.029,1.701-3.158c0.682-1.572,1.112-3.082,1.29-4.527c0.28-2.288-0.073-4.063-1.062-5.326			c-0.988-1.264-2.35-1.896-4.084-1.896c-1.341,0-2.603,0.321-3.785,0.966c-1.184,0.643-2.297,1.584-3.339,2.824			c-1.044,1.238-1.875,2.681-2.495,4.325S299.791,159.881,299.632,161.168z"/>
			<path display="inline" d="M325.079,171.218l0.487-25.344h4.125l-0.293,11.395l-0.315,6.391c-0.04,0.478-0.108,1.435-0.207,2.871			c0.68-1.612,1.239-2.853,1.68-3.718s1.123-2.101,2.048-3.706l7.588-13.232h4.656l-0.74,12.681c-0.115,1.925-0.349,4.489-0.7,7.694			c1.066-2.124,2.718-5.082,4.953-8.872l6.815-11.503h4.313l-15.44,25.344h-4.438l0.9-14.858c0.043-0.922,0.209-2.719,0.498-5.392			c-0.865,1.694-1.855,3.528-2.971,5.505l-8.459,14.745H325.079z"/>
			<path display="inline" d="M374.843,162.625l4.112,0.438c-0.855,2.075-2.475,4.047-4.858,5.915			c-2.385,1.869-5.069,2.804-8.053,2.804c-1.863,0-3.52-0.434-4.968-1.3c-1.449-0.865-2.479-2.126-3.088-3.779			c-0.61-1.653-0.785-3.537-0.526-5.651c0.34-2.767,1.305-5.448,2.895-8.048c1.591-2.6,3.474-4.531,5.65-5.795			c2.176-1.264,4.44-1.896,6.793-1.896c3,0,5.28,0.938,6.842,2.815c1.563,1.876,2.145,4.436,1.746,7.68			c-0.152,1.241-0.42,2.514-0.801,3.817h-18.512c-0.123,0.493-0.209,0.938-0.258,1.335c-0.291,2.366,0.027,4.173,0.955,5.42			s2.173,1.87,3.735,1.87c1.467,0,2.97-0.482,4.509-1.448C372.555,165.836,373.832,164.444,374.843,162.625z M363.165,156.343			h14.103c0.07-0.446,0.118-0.767,0.142-0.958c0.267-2.171-0.065-3.836-0.996-4.993s-2.24-1.736-3.928-1.736			c-1.83,0-3.576,0.639-5.239,1.916C365.582,151.849,364.221,153.773,363.165,156.343z"/>
			<path display="inline" d="M382.333,171.218l8.362-25.344h3.814l-1.712,5.185c1.541-1.955,2.987-3.402,4.342-4.34			c1.354-0.938,2.677-1.407,3.971-1.407c0.853,0,1.863,0.313,3.033,0.938l-2.242,4c-0.676-0.542-1.455-0.813-2.338-0.813			c-1.499,0-3.144,0.845-4.934,2.532c-1.789,1.688-3.407,4.721-4.853,9.098l-3.374,10.151H382.333z"/>
			<path display="inline" d="M417.95,162.625l4.111,0.438c-0.854,2.075-2.475,4.047-4.858,5.915			c-2.385,1.869-5.069,2.804-8.053,2.804c-1.863,0-3.52-0.434-4.968-1.3c-1.448-0.865-2.478-2.126-3.088-3.779			s-0.785-3.537-0.525-5.651c0.34-2.767,1.304-5.448,2.895-8.048c1.59-2.6,3.474-4.531,5.649-5.795s4.44-1.896,6.794-1.896			c2.999,0,5.28,0.938,6.842,2.815c1.562,1.876,2.144,4.436,1.745,7.68c-0.152,1.241-0.419,2.514-0.801,3.817h-18.512			c-0.123,0.493-0.209,0.938-0.258,1.335c-0.29,2.366,0.027,4.173,0.956,5.42c0.928,1.247,2.173,1.87,3.734,1.87			c1.468,0,2.971-0.482,4.509-1.448C415.661,165.836,416.937,164.444,417.95,162.625z M406.27,156.343h14.104			c0.07-0.446,0.117-0.767,0.141-0.958c0.267-2.171-0.065-3.836-0.996-4.993s-2.24-1.736-3.928-1.736			c-1.83,0-3.576,0.639-5.239,1.916C408.687,151.849,407.327,153.773,406.27,156.343z"/>
			<path display="inline" d="M442.803,167.545c-2.794,2.824-5.524,4.235-8.192,4.235c-2.384,0-4.261-0.886-5.629-2.659			c-1.369-1.771-1.847-4.344-1.433-7.714c0.379-3.084,1.352-5.901,2.92-8.453s3.374-4.463,5.417-5.735			c2.042-1.271,4.011-1.907,5.905-1.907c3.126,0,5.299,1.521,6.521,4.563l4.514-13.625h4.25l-11.544,34.969h-3.938L442.803,167.545z			 M431.899,160.594c-0.217,1.763-0.213,3.152,0.01,4.168c0.224,1.018,0.713,1.863,1.468,2.537c0.755,0.676,1.718,1.013,2.889,1.013			c1.944,0,3.832-1.016,5.663-3.047c2.45-2.697,3.919-6.029,4.406-9.997c0.246-2.004-0.083-3.57-0.988-4.699			s-2.148-1.694-3.729-1.694c-1.028,0-1.993,0.23-2.896,0.69c-0.902,0.461-1.837,1.243-2.803,2.347			c-0.966,1.104-1.838,2.505-2.615,4.204C432.525,157.815,432.057,159.308,431.899,160.594z"/>
		</g>
	</g>
</svg>