<svg id="Layer_1" data-name="Layer 1" xmlns="http://www.w3.org/2000/svg" viewBox="0 0 272.86 26.31"><defs><style>.cls-1{fill:#88ce00;}</style></defs><title>playminicraft_logo</title><path d="M2.16,15.54V26H0V.37H8.72a9.19,9.19,0,0,1,6.3,2A7.09,7.09,0,0,1,17.33,8a7,7,0,0,1-2.22,5.56q-2.22,2-6.44,2Zm0-1.83H8.72a6.92,6.92,0,0,0,4.8-1.5A5.34,5.34,0,0,0,15.17,8a5.59,5.59,0,0,0-1.64-4.23A6.59,6.59,0,0,0,8.86,2.2H2.16Z"/><path d="M24.35,24.13H37V26H22.17V.37h2.18Z"/><path d="M55.28,18.77H43.66L41,26H38.76L48.45.37H50.5L60.19,26H57.94Zm-11-1.83H54.6L49.46,3Z"/><path d="M69.8,14.33l7.82-14h2.5l-9.25,16V26H68.71V16.33L59.48.37h2.57Z"/><path class="cls-1" d="M90.65.37l5.71,17.81L102.06.37h8.12V26H104V20l.6-12.23L98.4,26H94.32L88.12,7.73,88.72,20v6H82.55V.37Z"/><path class="cls-1" d="M120.67,26h-6.15V.37h6.15Z"/><path class="cls-1" d="M146.34,26H140.2L131.13,10V26H125V.37h6.17l9.05,15.93V.37h6.15Z"/><path class="cls-1" d="M156.81,26h-6.15V.37h6.15Z"/><path class="cls-1" d="M181.81,17.3A9.35,9.35,0,0,1,180.37,22a8.7,8.7,0,0,1-3.7,3.17,12.59,12.59,0,0,1-5.44,1.13A10.05,10.05,0,0,1,163.28,23q-2.9-3.29-2.9-9.28V12.48a15.49,15.49,0,0,1,1.31-6.58,9.92,9.92,0,0,1,3.77-4.36A10.52,10.52,0,0,1,171.16,0a11,11,0,0,1,7.49,2.45,9.69,9.69,0,0,1,3.22,6.76h-6.15a4.58,4.58,0,0,0-1.18-3.36,4.84,4.84,0,0,0-3.37-1,3.69,3.69,0,0,0-3.37,1.72,11.07,11.07,0,0,0-1.12,5.5v1.81q0,4.1,1,5.85a3.76,3.76,0,0,0,3.54,1.76,4.74,4.74,0,0,0,3.25-1,4.25,4.25,0,0,0,1.2-3.18Z"/><path class="cls-1" d="M194.24,16.91H190.9V26h-6.17V.37H194.8a11.24,11.24,0,0,1,7.12,2,6.84,6.84,0,0,1,2.57,5.71,8.31,8.31,0,0,1-1.08,4.43A7.67,7.67,0,0,1,200,15.36l5.34,10.33V26h-6.61Zm-3.34-4.75h3.9a3.5,3.5,0,0,0,2.65-.92,3.58,3.58,0,0,0,.89-2.58,3.62,3.62,0,0,0-.9-2.6,3.47,3.47,0,0,0-2.64-.94h-3.9Z"/><path class="cls-1" d="M222.75,21.18h-8.46L212.82,26h-6.59L215.61.37h5.8L230.87,26h-6.63Zm-7-4.76h5.5l-2.76-8.88Z"/><path class="cls-1" d="M248.85,15.77H238.9V26h-6.17V.37h17.12V5.13h-11V11h9.95Z"/><path class="cls-1" d="M272.86,5.13h-7.68V26H259V5.13h-7.54V.37h21.39Z"/></svg>